<?xml version="1.0" encoding="utf-8"?>
<svg xmlns="http://www.w3.org/2000/svg" viewBox="0 0 24 24"><path d="M12 2C6.5 2 2 6.6 2 12.2c0 4.5 2.9 8.3 6.8 9.7.5.1.7-.2.7-.5v-2c-2.8.6-3.4-1.2-3.4-1.2-.5-1.2-1.1-1.5-1.1-1.5-.9-.6.1-.6.1-.6 1 .1 1.6 1.1 1.6 1.1.9 1.6 2.4 1.1 2.9.9.1-.7.4-1.1.7-1.4-2.2-.3-4.5-1.1-4.5-5 0-1.1.4-2 1-2.7-.1-.3-.4-1.3.1-2.7 0 0 .8-.3 2.8 1.1a9.5 9.5 0 0 1 5.1 0c1.9-1.4 2.8-1.1 2.8-1.1.5 1.4.2 2.4.1 2.7.6.7 1 1.6 1 2.7 0 3.9-2.3 4.8-4.5 5 .4.3.7 1 .7 2v2.9c0 .3.2.6.7.5a10.2 10.2 0 0 0 6.8-9.7C22 6.6 17.5 2 12 2Z"/></svg>
